<svg class="img-fluid" xmlns="http://www.w3.org/2000/svg" style="transform:matrix(1.44804,0,0,1.44804,1.82862,-2.74287);transform-origin:50% 50%;cursor:move;max-height:478.18px;transition:transform 200ms ease-in-out 0s" width="500" height="500" viewBox="0 0 5000 5000"><g fill="#168EC2" style="transform:none"><path d="M2384 3707c-34-46-228-235-299-292-27-22-58-48-69-57-56-51-223-149-300-178l-29-11 7-152c10-245 18-347 27-347 7 0 51 20 244 110 50 23 104 48 120 55 86 39 232 106 245 113 8 5 20 20 27 33 33 65 71 63 198-6 118-65 308-158 475-233 75-33 160-72 255-117 99-46 252-101 260-94 4 5-20 376-30 444-2 17-4 49-4 73-1 25-6 44-13 46s-51 11-98 21c-47 9-112 26-145 37-65 22-227 89-235 98-3 3-30 18-60 34-100 52-283 198-416 331l-131 130-29-38zM1505 3731c-3-5-1-21 5-36 5-14 10-38 10-53s7-36 15-46c21-27 19-69-5-111-25-45-25-59 2-102 44-73 135-77 178-8 23 38 20 72-12 118-18 25-19 34-9 110 6 45 13 92 17 105 6 21 4 22-72 23-44 0-89 2-101 5-12 2-25 0-28-5zM1456 3129c-49-5-91-10-93-13-4-3 12-367 23-513 3-46 10-83 16-83 5 0 50 19 100 42l91 42-7 116c-3 63-9 184-12 268-5 101-11 152-18 151-6-1-51-6-100-10z"/><path d="M2078 2722c-186-92-338-170-338-173s179-94 399-201c240-118 401-203 405-213 9-24-2-53-22-59-10-3-211 84-482 209l-464 214-368-187c-319-162-365-189-350-200 9-7 128-71 264-143 230-121 276-149 249-149-6 0-11-4-11-10 0-21 43-8 165 50l127 59 266 11c147 5 362 13 479 16 116 4 217 10 223 14 5 3 22 58 35 121 14 63 35 157 46 209 37 167 20 148 189 228 100 48 148 76 145 84-6 13-574 282-603 285-9 1-169-73-354-165z"/><path d="M3096 2252c-2-4-24-101-47-215-24-115-48-215-53-223-9-11-95-17-436-29-234-9-431-18-437-20-7-3-13-19-13-37 0-30 5-35 48-52 26-11 169-79 319-152l272-133 26 21c27 21 1009 508 1025 508 6 0 10 7 10 16 0 10-49 39-142 84-79 37-223 106-322 154-167 81-235 102-250 78z"/></g><path d="M2858 2548c-166-80-150-61-187-228-11-52-32-146-46-209-13-63-30-118-36-121-6-4-117-10-247-14-130-3-280-9-332-11s-162-7-243-11l-148-6-117-55c-64-30-119-59-122-63s-18-14-34-22l-29-15 144-71c79-38 191-92 249-119 58-28 246-119 418-203l314-152 161 77c89 43 166 82 171 86 9 8-374 201-564 285-43 19-69 35-60 38 8 3 206 12 440 21 341 12 427 18 436 29 5 8 29 108 53 223 23 114 46 211 50 216 4 4 88-31 187-79 405-195 468-224 488-223 11 0 90 35 174 77l153 77-253 124c-139 69-338 165-443 214-273 128-400 190-403 199-6 14-26 7-174-64z" fill="#FFF" style="transform:none"/></svg>